<svg width="460" height="306" viewBox="0 0 460 306" fill="none" xmlns="http://www.w3.org/2000/svg">
<mask id="path-1-inside-1" fill="white">
<path fill-rule="evenodd" clip-rule="evenodd" d="M260.961 67.0321L230 0L199.039 67.0321C165.64 75.9261 137.969 98.8655 122.737 129.139C112.591 125.176 101.55 123 90 123C40.2944 123 0 163.294 0 213C0 262.706 40.2944 303 90 303H230H370C419.706 303 460 262.706 460 213C460 163.294 419.706 123 370 123C358.45 123 347.409 125.176 337.263 129.139C322.031 98.8655 294.36 75.9261 260.961 67.0321Z"/>
</mask>
<path fill-rule="evenodd" clip-rule="evenodd" d="M260.961 67.0321L230 0L199.039 67.0321C165.64 75.9261 137.969 98.8655 122.737 129.139C112.591 125.176 101.55 123 90 123C40.2944 123 0 163.294 0 213C0 262.706 40.2944 303 90 303H230H370C419.706 303 460 262.706 460 213C460 163.294 419.706 123 370 123C358.45 123 347.409 125.176 337.263 129.139C322.031 98.8655 294.36 75.9261 260.961 67.0321Z" fill="white"/>
<path d="M230 0L233.631 -1.67726L230 -9.53939L226.369 -1.67726L230 0ZM260.961 67.0321L257.329 68.7094L258.117 70.4142L259.932 70.8974L260.961 67.0321ZM199.039 67.0321L200.069 70.8974L201.883 70.4142L202.671 68.7094L199.039 67.0321ZM122.737 129.139L121.282 132.865L124.674 134.19L126.311 130.937L122.737 129.139ZM337.263 129.139L333.689 130.937L335.326 134.19L338.718 132.865L337.263 129.139ZM226.369 1.67726L257.329 68.7094L264.592 65.3548L233.631 -1.67726L226.369 1.67726ZM202.671 68.7094L233.631 1.67726L226.369 -1.67726L195.408 65.3548L202.671 68.7094ZM126.311 130.937C141.037 101.668 167.791 79.4926 200.069 70.8974L198.01 63.1668C163.488 72.3597 134.901 96.0633 119.164 127.342L126.311 130.937ZM90 127C101.044 127 111.592 129.08 121.282 132.865L124.193 125.414C113.59 121.272 102.056 119 90 119V127ZM4 213C4 165.504 42.5035 127 90 127V119C38.0852 119 -4 161.085 -4 213H4ZM90 299C42.5035 299 4 260.496 4 213H-4C-4 264.915 38.0852 307 90 307V299ZM230 299H90V307H230V299ZM370 299H230V307H370V299ZM456 213C456 260.496 417.496 299 370 299V307C421.915 307 464 264.915 464 213H456ZM370 127C417.496 127 456 165.504 456 213H464C464 161.085 421.915 119 370 119V127ZM338.718 132.865C348.408 129.08 358.956 127 370 127V119C357.944 119 346.41 121.272 335.807 125.414L338.718 132.865ZM259.932 70.8974C292.209 79.4926 318.963 101.668 333.689 130.937L340.836 127.342C325.099 96.0633 296.512 72.3597 261.99 63.1668L259.932 70.8974Z" fill="#8351F6" mask="url(#path-1-inside-1)"/>
<circle cx="180" cy="177" r="34" fill="#8351F6" stroke="#8351F6" stroke-width="4"/>
<circle cx="187.5" cy="168" r="22" fill="white" stroke="#8351F6" stroke-width="4"/>
<circle cx="170" cy="196" r="11" fill="white" stroke="#8351F6" stroke-width="2"/>
<circle cx="280" cy="177" r="34" fill="#8351F6" stroke="#8351F6" stroke-width="4"/>
<circle cx="287.5" cy="168" r="22" fill="white" stroke="#8351F6" stroke-width="4"/>
<circle cx="270" cy="196" r="11" fill="white" stroke="#8351F6" stroke-width="2"/>
<path d="M240.969 263.344C240.74 263.823 240.448 264.396 240.094 265.062C239.76 265.708 239.375 266.385 238.938 267.094C238.5 267.802 238.01 268.51 237.469 269.219C236.927 269.906 236.333 270.531 235.688 271.094C235.062 271.635 234.385 272.073 233.656 272.406C232.948 272.76 232.188 272.938 231.375 272.938C230.125 272.938 229.052 272.552 228.156 271.781C227.26 271.01 226.5 270 225.875 268.75C225.25 267.5 224.74 266.083 224.344 264.5C223.969 262.896 223.677 261.271 223.469 259.625C223.26 257.958 223.115 256.344 223.031 254.781C222.969 253.219 222.938 251.833 222.938 250.625C222.938 248.875 222.99 247.062 223.094 245.188C223.219 243.312 223.406 241.479 223.656 239.688C223.906 237.896 224.219 236.198 224.594 234.594C224.99 232.99 225.448 231.583 225.969 230.375C226.51 229.167 227.125 228.208 227.812 227.5C228.5 226.792 229.281 226.438 230.156 226.438C230.844 226.438 231.458 226.604 232 226.938C232.562 227.25 233.031 227.771 233.406 228.5C233.781 229.229 234.073 230.177 234.281 231.344C234.49 232.51 234.594 233.938 234.594 235.625C234.594 237.708 234.375 239.865 233.938 242.094C233.5 244.302 232.906 246.531 232.156 248.781C231.406 251.031 230.521 253.281 229.5 255.531C228.479 257.76 227.385 259.938 226.219 262.062C226.74 264.708 227.438 266.792 228.312 268.312C229.188 269.812 230.24 270.562 231.469 270.562C232.302 270.562 233.104 270.24 233.875 269.594C234.646 268.927 235.354 268.146 236 267.25C236.646 266.354 237.208 265.448 237.688 264.531C238.188 263.594 238.573 262.844 238.844 262.281C238.948 262.073 239.094 261.917 239.281 261.812C239.469 261.688 239.677 261.625 239.906 261.625C240.26 261.625 240.542 261.75 240.75 262C240.979 262.25 241.094 262.531 241.094 262.844C241.094 262.969 241.052 263.135 240.969 263.344ZM225.312 250.781C225.312 252.115 225.344 253.396 225.406 254.625C225.469 255.854 225.552 257.031 225.656 258.156C226.531 256.469 227.365 254.677 228.156 252.781C228.948 250.865 229.646 248.938 230.25 247C230.854 245.042 231.333 243.104 231.688 241.188C232.062 239.25 232.25 237.406 232.25 235.656C232.25 233.198 232.052 231.438 231.656 230.375C231.26 229.312 230.729 228.781 230.062 228.781C229.625 228.781 229.198 229.083 228.781 229.688C228.385 230.292 228.01 231.115 227.656 232.156C227.302 233.198 226.979 234.427 226.688 235.844C226.396 237.26 226.146 238.781 225.938 240.406C225.75 242.031 225.594 243.729 225.469 245.5C225.365 247.271 225.312 249.031 225.312 250.781Z" fill="#8351F6"/>
<path d="M240.969 263.344L241.871 263.775L241.885 263.746L241.897 263.715L240.969 263.344ZM240.094 265.062L239.211 264.593L239.205 264.604L240.094 265.062ZM237.469 269.219L238.254 269.838L238.259 269.832L238.263 269.826L237.469 269.219ZM235.688 271.094L236.342 271.849L236.344 271.848L235.688 271.094ZM233.656 272.406L233.24 271.497L233.225 271.504L233.209 271.512L233.656 272.406ZM224.344 264.5L223.37 264.728L223.372 264.735L223.374 264.743L224.344 264.5ZM223.469 259.625L222.476 259.749L222.477 259.751L223.469 259.625ZM223.031 254.781L222.032 254.821L222.033 254.835L223.031 254.781ZM223.094 245.188L222.096 245.121L222.095 245.132L223.094 245.188ZM223.656 239.688L222.666 239.549L223.656 239.688ZM224.594 234.594L223.623 234.354L223.62 234.366L224.594 234.594ZM225.969 230.375L225.056 229.966L225.053 229.973L225.05 229.979L225.969 230.375ZM232 226.938L231.476 227.789L231.495 227.801L231.514 227.812L232 226.938ZM233.938 242.094L234.918 242.288L234.919 242.286L233.938 242.094ZM229.5 255.531L230.409 255.948L230.411 255.944L229.5 255.531ZM226.219 262.062L225.342 261.581L225.167 261.899L225.238 262.256L226.219 262.062ZM228.312 268.312L227.446 268.811L227.449 268.816L228.312 268.312ZM233.875 269.594L234.517 270.36L234.523 270.355L234.529 270.35L233.875 269.594ZM237.688 264.531L236.805 264.061L236.801 264.068L237.688 264.531ZM238.844 262.281L237.949 261.834L237.946 261.841L237.943 261.847L238.844 262.281ZM239.281 261.812L239.767 262.687L239.802 262.667L239.836 262.645L239.281 261.812ZM240.75 262L239.982 262.64L239.997 262.658L240.013 262.676L240.75 262ZM225.656 258.156L224.661 258.248L224.975 261.643L226.544 258.617L225.656 258.156ZM228.156 252.781L229.079 253.167L229.081 253.163L228.156 252.781ZM230.25 247L231.205 247.298L231.206 247.295L230.25 247ZM231.688 241.188L230.706 240.997L230.704 241.006L231.688 241.188ZM228.781 229.688L227.958 229.12L227.951 229.13L227.945 229.139L228.781 229.688ZM225.938 240.406L224.946 240.279L224.944 240.292L225.938 240.406ZM225.469 245.5L224.471 245.43L224.47 245.441L225.469 245.5ZM240.067 262.912C239.845 263.375 239.561 263.934 239.211 264.593L240.977 265.532C241.335 264.857 241.634 264.271 241.871 263.775L240.067 262.912ZM239.205 264.604C238.885 265.224 238.513 265.879 238.087 266.568L239.788 267.619C240.237 266.892 240.636 266.193 240.982 265.521L239.205 264.604ZM238.087 266.568C237.668 267.246 237.197 267.927 236.674 268.611L238.263 269.826C238.824 269.093 239.332 268.358 239.788 267.619L238.087 266.568ZM236.683 268.6C236.179 269.239 235.629 269.819 235.031 270.34L236.344 271.848C237.038 271.243 237.675 270.573 238.254 269.838L236.683 268.6ZM235.033 270.338C234.477 270.819 233.88 271.204 233.24 271.497L234.072 273.316C234.891 272.942 235.648 272.452 236.342 271.849L235.033 270.338ZM233.209 271.512C232.643 271.795 232.036 271.938 231.375 271.938V273.938C232.339 273.938 233.253 273.726 234.103 273.301L233.209 271.512ZM231.375 271.938C230.349 271.938 229.512 271.628 228.808 271.023L227.504 272.539C228.592 273.476 229.901 273.938 231.375 273.938V271.938ZM228.808 271.023C228.03 270.353 227.346 269.455 226.769 268.303L224.981 269.197C225.654 270.545 226.491 271.668 227.504 272.539L228.808 271.023ZM226.769 268.303C226.182 267.128 225.695 265.781 225.314 264.257L223.374 264.743C223.784 266.385 224.318 267.872 224.981 269.197L226.769 268.303ZM225.317 264.272C224.95 262.702 224.665 261.111 224.461 259.499L222.477 259.751C222.689 261.43 222.987 263.09 223.37 264.728L225.317 264.272ZM224.461 259.501C224.255 257.856 224.112 256.265 224.03 254.728L222.033 254.835C222.117 256.422 222.265 258.061 222.476 259.749L224.461 259.501ZM224.03 254.741C223.968 253.188 223.938 251.817 223.938 250.625H221.938C221.938 251.85 221.969 253.249 222.032 254.821L224.03 254.741ZM223.938 250.625C223.938 248.895 223.989 247.101 224.092 245.243L222.095 245.132C221.99 247.024 221.938 248.855 221.938 250.625H223.938ZM224.092 245.254C224.215 243.402 224.4 241.593 224.647 239.826L222.666 239.549C222.412 241.366 222.223 243.223 222.096 245.121L224.092 245.254ZM224.647 239.826C224.893 238.061 225.2 236.393 225.567 234.821L223.62 234.366C223.237 236.003 222.92 237.73 222.666 239.549L224.647 239.826ZM225.565 234.833C225.95 233.27 226.393 231.918 226.887 230.771L225.05 229.979C224.503 231.249 224.029 232.709 223.623 234.354L225.565 234.833ZM226.881 230.784C227.39 229.648 227.946 228.798 228.53 228.196L227.095 226.804C226.304 227.619 225.63 228.685 225.056 229.966L226.881 230.784ZM228.53 228.196C229.056 227.655 229.587 227.438 230.156 227.438V225.438C228.975 225.438 227.944 225.928 227.095 226.804L228.53 228.196ZM230.156 227.438C230.674 227.438 231.105 227.561 231.476 227.789L232.524 226.086C231.812 225.648 231.013 225.438 230.156 225.438V227.438ZM231.514 227.812C231.862 228.005 232.208 228.356 232.517 228.957L234.296 228.043C233.855 227.186 233.263 226.495 232.486 226.063L231.514 227.812ZM232.517 228.957C232.831 229.568 233.099 230.411 233.297 231.52L235.266 231.168C235.047 229.943 234.731 228.89 234.296 228.043L232.517 228.957ZM233.297 231.52C233.491 232.61 233.594 233.974 233.594 235.625H235.594C235.594 233.901 235.488 232.411 235.266 231.168L233.297 231.52ZM233.594 235.625C233.594 237.638 233.382 239.73 232.956 241.901L234.919 242.286C235.368 239.999 235.594 237.778 235.594 235.625H233.594ZM232.957 241.899C232.528 244.064 231.945 246.253 231.208 248.465L233.105 249.097C233.868 246.81 234.472 244.54 234.918 242.288L232.957 241.899ZM231.208 248.465C230.469 250.681 229.596 252.898 228.589 255.118L230.411 255.944C231.445 253.664 232.344 251.382 233.105 249.097L231.208 248.465ZM228.591 255.115C227.58 257.322 226.497 259.478 225.342 261.581L227.095 262.544C228.274 260.397 229.378 258.199 230.409 255.948L228.591 255.115ZM225.238 262.256C225.769 264.958 226.495 267.159 227.446 268.811L229.179 267.814C228.38 266.425 227.71 264.459 227.2 261.869L225.238 262.256ZM227.449 268.816C228.421 270.483 229.746 271.562 231.469 271.562V269.562C230.733 269.562 229.954 269.142 229.176 267.809L227.449 268.816ZM231.469 271.562C232.583 271.562 233.605 271.124 234.517 270.36L233.233 268.827C232.603 269.355 232.021 269.562 231.469 269.562V271.562ZM234.529 270.35C235.363 269.629 236.124 268.789 236.811 267.835L235.189 266.665C234.585 267.503 233.928 268.226 233.221 268.837L234.529 270.35ZM236.811 267.835C237.483 266.903 238.071 265.956 238.574 264.995L236.801 264.068C236.346 264.94 235.809 265.805 235.189 266.665L236.811 267.835ZM238.57 265.002C239.073 264.059 239.465 263.296 239.745 262.715L237.943 261.847C237.681 262.392 237.302 263.128 236.805 264.061L238.57 265.002ZM239.738 262.728C239.751 262.702 239.76 262.692 239.762 262.69C239.764 262.689 239.764 262.688 239.767 262.687L238.796 260.938C238.417 261.149 238.135 261.462 237.949 261.834L239.738 262.728ZM239.836 262.645C239.856 262.631 239.871 262.625 239.906 262.625V260.625C239.483 260.625 239.081 260.744 238.727 260.98L239.836 262.645ZM239.906 262.625C239.964 262.625 239.982 262.635 239.977 262.633C239.975 262.632 239.973 262.631 239.972 262.63C239.971 262.629 239.975 262.632 239.982 262.64L241.518 261.36C241.102 260.86 240.527 260.625 239.906 260.625V262.625ZM240.013 262.676C240.089 262.758 240.094 262.804 240.094 262.844H242.094C242.094 262.259 241.87 261.742 241.487 261.324L240.013 262.676ZM240.094 262.844C240.094 262.8 240.1 262.789 240.092 262.82C240.085 262.849 240.07 262.898 240.04 262.972L241.897 263.715C241.996 263.467 242.094 263.16 242.094 262.844H240.094ZM224.312 250.781C224.312 252.13 224.344 253.428 224.408 254.676L226.405 254.574C226.343 253.363 226.312 252.099 226.312 250.781H224.312ZM224.408 254.676C224.471 255.918 224.555 257.109 224.661 258.248L226.652 258.064C226.549 256.954 226.467 255.791 226.405 254.574L224.408 254.676ZM226.544 258.617C227.433 256.903 228.278 255.086 229.079 253.167L227.233 252.396C226.452 254.268 225.63 256.035 224.768 257.696L226.544 258.617ZM229.081 253.163C229.883 251.219 230.591 249.264 231.205 247.298L229.295 246.702C228.7 248.611 228.013 250.51 227.232 252.399L229.081 253.163ZM231.206 247.295C231.821 245.301 232.309 243.326 232.671 241.369L230.704 241.006C230.357 242.882 229.888 244.782 229.294 246.705L231.206 247.295ZM232.669 241.378C233.055 239.385 233.25 237.478 233.25 235.656H231.25C231.25 237.335 231.07 239.115 230.706 240.997L232.669 241.378ZM233.25 235.656C233.25 233.185 233.056 231.269 232.593 230.026L230.719 230.724C231.048 231.606 231.25 233.211 231.25 235.656H233.25ZM232.593 230.026C232.165 228.877 231.398 227.781 230.062 227.781V229.781C230.096 229.781 230.15 229.783 230.254 229.887C230.38 230.013 230.548 230.265 230.719 230.724L232.593 230.026ZM230.062 227.781C229.123 227.781 228.435 228.429 227.958 229.12L229.604 230.255C229.771 230.014 229.904 229.886 229.992 229.824C230.07 229.769 230.088 229.781 230.062 229.781V227.781ZM227.945 229.139C227.485 229.841 227.078 230.75 226.709 231.834L228.603 232.478C228.943 231.479 229.285 230.743 229.618 230.236L227.945 229.139ZM226.709 231.834C226.339 232.925 226.006 234.197 225.708 235.642L227.667 236.045C227.953 234.658 228.266 233.47 228.603 232.478L226.709 231.834ZM225.708 235.642C225.411 237.086 225.157 238.632 224.946 240.279L226.929 240.533C227.135 238.93 227.381 237.434 227.667 236.045L225.708 235.642ZM224.944 240.292C224.755 241.933 224.597 243.645 224.471 245.43L226.466 245.57C226.59 243.813 226.745 242.13 226.931 240.521L224.944 240.292ZM224.47 245.441C224.365 247.231 224.312 249.011 224.312 250.781H226.312C226.312 249.051 226.364 247.31 226.467 245.559L224.47 245.441Z" fill="#8351F6"/>
</svg>
