<svg width="460" height="306" viewBox="0 0 460 306" fill="none" xmlns="http://www.w3.org/2000/svg">
<mask id="path-1-inside-1" fill="white">
<path fill-rule="evenodd" clip-rule="evenodd" d="M260.961 67.0321L230 0L199.039 67.0321C165.64 75.9261 137.969 98.8655 122.737 129.139C112.591 125.176 101.55 123 90 123C40.2944 123 0 163.294 0 213C0 262.706 40.2944 303 90 303H230H370C419.706 303 460 262.706 460 213C460 163.294 419.706 123 370 123C358.45 123 347.409 125.176 337.263 129.139C322.031 98.8655 294.36 75.9261 260.961 67.0321Z"/>
</mask>
<path fill-rule="evenodd" clip-rule="evenodd" d="M260.961 67.0321L230 0L199.039 67.0321C165.64 75.9261 137.969 98.8655 122.737 129.139C112.591 125.176 101.55 123 90 123C40.2944 123 0 163.294 0 213C0 262.706 40.2944 303 90 303H230H370C419.706 303 460 262.706 460 213C460 163.294 419.706 123 370 123C358.45 123 347.409 125.176 337.263 129.139C322.031 98.8655 294.36 75.9261 260.961 67.0321Z" fill="white"/>
<path d="M230 0L233.631 -1.67726L230 -9.53939L226.369 -1.67726L230 0ZM260.961 67.0321L257.329 68.7094L258.117 70.4142L259.932 70.8974L260.961 67.0321ZM199.039 67.0321L200.068 70.8974L201.883 70.4142L202.671 68.7094L199.039 67.0321ZM122.737 129.139L121.282 132.865L124.674 134.19L126.311 130.937L122.737 129.139ZM337.263 129.139L333.689 130.937L335.326 134.19L338.718 132.865L337.263 129.139ZM226.369 1.67726L257.329 68.7094L264.592 65.3548L233.631 -1.67726L226.369 1.67726ZM202.671 68.7094L233.631 1.67726L226.369 -1.67726L195.408 65.3548L202.671 68.7094ZM126.311 130.937C141.037 101.668 167.791 79.4926 200.068 70.8974L198.01 63.1668C163.488 72.3597 134.901 96.0633 119.164 127.342L126.311 130.937ZM90 127C101.044 127 111.592 129.08 121.282 132.865L124.193 125.414C113.59 121.272 102.056 119 90 119V127ZM4 213C4 165.504 42.5035 127 90 127V119C38.0852 119 -4 161.085 -4 213H4ZM90 299C42.5035 299 4 260.496 4 213H-4C-4 264.915 38.0852 307 90 307V299ZM230 299H90V307H230V299ZM370 299H230V307H370V299ZM456 213C456 260.496 417.496 299 370 299V307C421.915 307 464 264.915 464 213H456ZM370 127C417.496 127 456 165.504 456 213H464C464 161.085 421.915 119 370 119V127ZM338.718 132.865C348.408 129.08 358.956 127 370 127V119C357.944 119 346.41 121.271 335.807 125.414L338.718 132.865ZM259.932 70.8974C292.209 79.4926 318.963 101.668 333.689 130.937L340.836 127.342C325.099 96.0633 296.512 72.3597 261.99 63.1668L259.932 70.8974Z" fill="white" mask="url(#path-1-inside-1)"/>
<circle cx="180" cy="177" r="34" fill="#8351F6" stroke="#8351F6" stroke-width="4"/>
<circle cx="187.5" cy="168" r="22" fill="white" stroke="#8351F6" stroke-width="4"/>
<circle cx="170" cy="196" r="11" fill="white" stroke="#8351F6" stroke-width="2"/>
<circle cx="280" cy="177" r="34" fill="#8351F6" stroke="#8351F6" stroke-width="4"/>
<circle cx="287.5" cy="168" r="22" fill="white" stroke="#8351F6" stroke-width="4"/>
<circle cx="270" cy="196" r="11" fill="white" stroke="#8351F6" stroke-width="2"/>
<path d="M240.969 263.344C240.74 263.823 240.448 264.396 240.094 265.062C239.76 265.708 239.375 266.385 238.938 267.094C238.5 267.802 238.01 268.51 237.469 269.219C236.927 269.906 236.333 270.531 235.688 271.094C235.062 271.635 234.385 272.073 233.656 272.406C232.948 272.76 232.188 272.938 231.375 272.938C230.125 272.938 229.052 272.552 228.156 271.781C227.26 271.01 226.5 270 225.875 268.75C225.25 267.5 224.74 266.083 224.344 264.5C223.969 262.896 223.677 261.271 223.469 259.625C223.26 257.958 223.115 256.344 223.031 254.781C222.969 253.219 222.938 251.833 222.938 250.625C222.938 248.875 222.99 247.062 223.094 245.188C223.219 243.312 223.406 241.479 223.656 239.688C223.906 237.896 224.219 236.198 224.594 234.594C224.99 232.99 225.448 231.583 225.969 230.375C226.51 229.167 227.125 228.208 227.812 227.5C228.5 226.792 229.281 226.438 230.156 226.438C230.844 226.438 231.458 226.604 232 226.938C232.562 227.25 233.031 227.771 233.406 228.5C233.781 229.229 234.073 230.177 234.281 231.344C234.49 232.51 234.594 233.938 234.594 235.625C234.594 237.708 234.375 239.865 233.938 242.094C233.5 244.302 232.906 246.531 232.156 248.781C231.406 251.031 230.521 253.281 229.5 255.531C228.479 257.76 227.385 259.938 226.219 262.062C226.74 264.708 227.438 266.792 228.312 268.312C229.188 269.812 230.24 270.562 231.469 270.562C232.302 270.562 233.104 270.24 233.875 269.594C234.646 268.927 235.354 268.146 236 267.25C236.646 266.354 237.208 265.448 237.688 264.531C238.188 263.594 238.573 262.844 238.844 262.281C238.948 262.073 239.094 261.917 239.281 261.812C239.469 261.688 239.677 261.625 239.906 261.625C240.26 261.625 240.542 261.75 240.75 262C240.979 262.25 241.094 262.531 241.094 262.844C241.094 262.969 241.052 263.135 240.969 263.344ZM225.312 250.781C225.312 252.115 225.344 253.396 225.406 254.625C225.469 255.854 225.552 257.031 225.656 258.156C226.531 256.469 227.365 254.677 228.156 252.781C228.948 250.865 229.646 248.938 230.25 247C230.854 245.042 231.333 243.104 231.688 241.188C232.062 239.25 232.25 237.406 232.25 235.656C232.25 233.198 232.052 231.438 231.656 230.375C231.26 229.312 230.729 228.781 230.062 228.781C229.625 228.781 229.198 229.083 228.781 229.688C228.385 230.292 228.01 231.115 227.656 232.156C227.302 233.198 226.979 234.427 226.688 235.844C226.396 237.26 226.146 238.781 225.938 240.406C225.75 242.031 225.594 243.729 225.469 245.5C225.365 247.271 225.312 249.031 225.312 250.781Z" fill="#8351F6"/>
</svg>
